<?xml version="1.0" encoding="UTF-8" standalone="no"?>
<svg width="1280px" height="678px" viewBox="0 0 1280 678" version="1.1" xmlns="http://www.w3.org/2000/svg" xmlns:xlink="http://www.w3.org/1999/xlink">
    <!-- Generator: Sketch 3.8.3 (29802) - http://www.bohemiancoding.com/sketch -->
    <title>Slice 1</title>
    <desc>Created with Sketch.</desc>
    <defs>
        <rect id="path-1" x="587" y="403" width="23.7164937" height="25.207178"></rect>
        <mask id="mask-2" maskContentUnits="userSpaceOnUse" maskUnits="objectBoundingBox" x="-5" y="-5" width="33.7164937" height="35.207178">
            <rect x="582" y="398" width="33.7164937" height="35.207178" fill="white"></rect>
            <use xlink:href="#path-1" fill="black"></use>
        </mask>
        <rect id="path-3" x="1146" y="164" width="23.7164937" height="25.207178"></rect>
        <mask id="mask-4" maskContentUnits="userSpaceOnUse" maskUnits="objectBoundingBox" x="-5" y="-5" width="33.7164937" height="35.207178">
            <rect x="1141" y="159" width="33.7164937" height="35.207178" fill="white"></rect>
            <use xlink:href="#path-3" fill="black"></use>
        </mask>
    </defs>
    <g id="Welcome" stroke="none" stroke-width="1" fill="none" fill-rule="evenodd">
        <g id="welcome-page">
            <use id="Rectangle-3" stroke="#FFD73C" mask="url(#mask-2)" stroke-width="10" xlink:href="#path-1"></use>
            <ellipse id="Oval-1" stroke="#0A2037" stroke-width="5" cx="119.15" cy="164.149168" rx="18.1499996" ry="18.1491682"></ellipse>
            <polygon id="Triangle-1" stroke="#CF352B" stroke-width="5" points="416.819174 565 438.638348 600.290049 395 600.290049"></polygon>
            <use id="Rectangle-3" stroke="#979797" mask="url(#mask-4)" stroke-width="10" xlink:href="#path-3"></use>
            <rect id="Rectangle-3" fill="#FFD73C" x="913" y="285" width="23.7164937" height="25.207178"></rect>
            <ellipse id="Oval-1" stroke="#0A2037" stroke-width="5" cx="666.22626" cy="85.3571776" rx="18.1499996" ry="18.1499996"></ellipse>
            <polygon id="Triangle-1" fill="#0A2037" points="960.819174 583 982.638348 618.290049 939 618.290049"></polygon>
            <polygon id="Triangle-1" fill="#B5B09C" points="384.819174 56.1160197 406.638348 91.4060689 363 91.4060689"></polygon>
            <rect id="Rectangle-3" fill="#CF352B" x="260" y="260" width="23.7164937" height="25.207178"></rect>
            <rect id="Rectangle-3" fill="#B5B09C" x="983" y="73" width="23.7164937" height="25.207178"></rect>
            <ellipse id="Oval-1" fill="#CF352B" cx="1156.24846" cy="507.5" rx="13.5" ry="13.5"></ellipse>
            <ellipse id="Oval-1" fill="#B5B09C" cx="156.638348" cy="521.5" rx="13.5" ry="13.5"></ellipse>
        </g>
    </g>
</svg>